<svg id="Capa_1" enable-background="new 0 0 512 512" height="512" viewBox="0 0 512 512" width="512" xmlns="http://www.w3.org/2000/svg"><g><path d="m435.203 363.768c-190.19 192.121-127.162 127.849-147.44 148.232h165.134z"/><path d="m423.14 262.709c-5.993 6.035-224.688 226.226-243.189 244.853l-.231-.228-4.627 4.666h70.549c15.804-15.964 169.224-170.451 185.012-186.353z"/><path d="m196 90c0-33.084 26.916-60 60-60s60 26.916 60 60v15h30v-15c0-49.626-40.374-90-90-90s-90 40.374-90 90v15h30z"/><path d="m404.316 105h-58.316v75h-30v-75h-120v75h-30v-75h-58.316l-48.581 407h73.739c18.656-18.76 59.209-59.989 285.759-287.319z"/></g></svg>